<?xml version="1.0" encoding="utf-8"?>
<!-- Generator: Adobe Illustrator 23.1.0, SVG Export Plug-In . SVG Version: 6.00 Build 0)  -->
<svg version="1.1" id="Layer_1" xmlns="http://www.w3.org/2000/svg" xmlns:xlink="http://www.w3.org/1999/xlink" x="0px" y="0px"
	 viewBox="0 0 520 130" style="enable-background:new 0 0 520 130;" xml:space="preserve">
<style type="text/css">
	.st0{fill:#E5E5E5;}
	.st1{fill:#2566AF;}
	.st2{fill:#E6A540;}
	.st3{fill-rule:evenodd;clip-rule:evenodd;fill:#1B3771;}
	.st4{fill-rule:evenodd;clip-rule:evenodd;fill:#E9B040;}
	.st5{fill-rule:evenodd;clip-rule:evenodd;fill:#CC2131;}
	.st6{fill-rule:evenodd;clip-rule:evenodd;fill:#FFFFFF;}
</style>
<rect y="23" class="st0" width="194.11" height="89.31"/>
<g>
	<path class="st1" d="M84.81,90.99H72.32l7.8-47.95h12.49L84.81,90.99z M61.82,43.03l-11.9,32.98l-1.41-7.1l0,0l-4.2-21.57
		c0,0-0.51-4.32-5.92-4.32H18.71l-0.23,0.81c0,0,6.02,1.25,13.06,5.48l10.85,41.66h13.01l19.86-47.96L61.82,43.03L61.82,43.03z
		 M160.02,90.99h11.46l-10-47.96h-10.04c-4.63,0-5.76,3.57-5.76,3.57l-18.62,44.38h13.01l2.6-7.12h15.87L160.02,90.99L160.02,90.99z
		 M146.28,74.02l6.56-17.95l3.69,17.95H146.28z M128.04,54.56l1.78-10.3c0,0-5.5-2.09-11.23-2.09c-6.2,0-20.91,2.71-20.91,15.88
		c0,12.39,17.27,12.54,17.27,19.05s-15.49,5.34-20.6,1.24L92.5,89.1c0,0,5.57,2.71,14.09,2.71c8.52,0,21.37-4.41,21.37-16.42
		c0-12.47-17.42-13.63-17.42-19.05C110.54,50.92,122.7,51.62,128.04,54.56L128.04,54.56z"/>
</g>
<path class="st2" d="M48.51,68.91l-4.2-21.57c0,0-0.51-4.32-5.92-4.32H18.71l-0.23,0.81c0,0,9.46,1.96,18.53,9.3
	C45.68,60.16,48.51,68.91,48.51,68.91z"/>
<path class="st3" d="M218.97,111.12H359V25.34H218.97V111.12L218.97,111.12z"/>
<path class="st4" d="M289.1,95.64c6.76,5.96,15.84,9.6,25.68,9.6c21.17,0,38.29-16.57,38.29-37.08c0-20.43-17.12-37.07-38.29-37.07
	c-9.84,0-18.92,3.63-25.68,9.6c-7.73,6.83-12.61,16.57-12.61,27.48C276.48,79.07,281.36,88.88,289.1,95.64L289.1,95.64z"/>
<path class="st4" d="M347.96,88.81c0-0.65,0.52-1.16,1.28-1.16c0.68,0,1.2,0.51,1.2,1.16s-0.53,1.24-1.2,1.24
	c-0.7,0.01-1.27-0.54-1.28-1.22C347.96,88.82,347.96,88.81,347.96,88.81z M349.24,89.75c0.45,0,0.9-0.44,0.9-0.94
	s-0.45-0.87-0.9-0.87c-0.53,0-0.98,0.36-0.98,0.87S348.71,89.75,349.24,89.75z M349.01,89.39h-0.23V88.3h0.45
	c0.07,0,0.23,0,0.3,0.07c0.07,0.07,0.15,0.15,0.15,0.22c0,0.15-0.07,0.29-0.22,0.29l0.22,0.51h-0.3l-0.15-0.44h-0.23L349.01,89.39
	L349.01,89.39z M349.01,88.73h0.3c0.07,0,0.07-0.07,0.07-0.15c0,0,0-0.07-0.07-0.07h-0.3V88.73L349.01,88.73z"/>
<path class="st5" d="M301.49,64.23c-0.15-1.32-0.38-2.63-0.68-3.93h-23.43c0.31-1.33,0.68-2.64,1.13-3.93h21.17
	c-0.46-1.33-0.99-2.64-1.58-3.93h-18.02c0.69-1.34,1.44-2.65,2.25-3.93h13.51c-0.84-1.4-1.82-2.71-2.93-3.93h-7.66
	c1.13-1.38,2.48-2.69,3.83-3.93c-6.76-5.96-15.77-9.6-25.68-9.6c-21.17,0-38.29,16.65-38.29,37.07c0,20.5,17.12,37.08,38.29,37.08
	c9.91,0,18.92-3.63,25.68-9.6c1.35-1.24,2.7-2.54,3.9-3.93h-7.73c-1.06-1.25-2.04-2.56-2.93-3.93h13.52
	c0.84-1.26,1.59-2.57,2.25-3.93h-18.02c-0.62-1.27-1.14-2.58-1.58-3.93h21.17c0.44-1.29,0.82-2.6,1.13-3.93
	c0.3-1.31,0.52-2.62,0.68-3.93C301.79,69.48,301.79,66.84,301.49,64.23L301.49,64.23z"/>
<path class="st6" d="M347.96,76.74c0-0.65,0.52-1.16,1.28-1.16c0.68,0,1.2,0.51,1.2,1.16s-0.53,1.24-1.2,1.24
	c-0.7,0.01-1.27-0.54-1.28-1.21C347.96,76.75,347.96,76.75,347.96,76.74z M349.24,77.68c0.45,0,0.9-0.44,0.9-0.94
	c0-0.51-0.45-0.87-0.9-0.87c-0.53,0-0.98,0.36-0.98,0.87C348.26,77.25,348.71,77.68,349.24,77.68z M349.01,77.32h-0.23v-1.09h0.45
	c0.07,0,0.23,0,0.3,0.07c0.07,0.07,0.15,0.15,0.15,0.22c0,0.15-0.07,0.29-0.22,0.29l0.22,0.51h-0.3l-0.15-0.44h-0.23L349.01,77.32
	L349.01,77.32z M349.01,76.67h0.3c0.07,0,0.07-0.07,0.07-0.15c0,0,0-0.07-0.07-0.07h-0.3V76.67L349.01,76.67z"/>
<path class="st3" d="M276.11,78.85c-1.28,0.36-2.18,0.51-3.15,0.51c-1.95,0-3.15-1.16-3.15-3.34c0-0.44,0.07-0.87,0.15-1.38
	l0.22-1.45l0.23-1.24l1.8-10.47h3.98l-0.45,2.33h2.48l-0.6,3.85h-2.48L274,73.9c0,0.22-0.07,0.44-0.07,0.58
	c0,0.8,0.45,1.16,1.43,1.16c0.53,0,0.83-0.07,1.28-0.15L276.11,78.85L276.11,78.85z M288.95,78.7c-1.38,0.43-2.83,0.65-4.28,0.66
	c-4.43,0-7.06-2.33-7.06-6.83c0-5.23,3.08-9.16,7.28-9.16c3.38,0,5.56,2.18,5.56,5.6c0,1.09-0.15,2.18-0.52,3.78h-8.26v0.44
	c0,1.82,1.2,2.69,3.6,2.69c1.5,0,2.85-0.29,4.36-0.94L288.95,78.7L288.95,78.7z M286.47,69.61v-0.73c0-1.24-0.75-1.96-1.95-1.96
	c-1.35,0-2.25,0.94-2.63,2.69L286.47,69.61L286.47,69.61L286.47,69.61z M244.35,79.07h-4.13l2.4-14.47l-5.33,14.47h-2.85l-0.3-14.39
	l-2.55,14.39h-3.98l3.23-18.83h5.93l0.23,11.63l3.98-11.63h6.61L244.35,79.07z M254.33,72.23c-0.45,0-0.53-0.07-0.83-0.07
	c-2.33,0-3.53,0.87-3.53,2.33c0,1.02,0.6,1.6,1.5,1.6C253.51,76.09,254.26,74.48,254.33,72.23L254.33,72.23z M257.64,79.07h-3.6
	l0.07-1.6c-0.9,1.24-2.1,1.89-4.36,1.89c-2.03,0-3.68-1.74-3.68-4.22c0-0.73,0.15-1.38,0.3-1.96c0.68-2.4,3.15-3.85,6.91-3.93
	c0.45,0,1.2,0,1.8,0.07c0.15-0.51,0.15-0.73,0.15-1.02c0-1.02-0.83-1.31-2.78-1.31c-1.2,0-2.48,0.22-3.45,0.44l-0.53,0.22h-0.3
	l0.6-3.42c1.95-0.58,3.3-0.8,4.81-0.8c3.6,0,5.48,1.53,5.48,4.51c0,0.73,0.07,1.31-0.23,2.98l-0.83,5.45l-0.15,0.94l-0.15,0.8v0.51
	L257.64,79.07L257.64,79.07z M308.92,63.94c1.13,0,2.18,0.29,3.68,1.02l0.68-4.14c-0.38-0.15-0.45-0.15-0.98-0.36l-1.73-0.36
	c-0.53-0.15-1.13-0.22-1.88-0.22c-2.03,0-3.23,0-4.5,0.8c-0.68,0.36-1.5,0.94-2.48,1.96l-0.45-0.15l-4.28,2.91l0.23-1.6h-4.43
	l-2.48,15.27h4.13l1.5-8.21c0,0,0.6-1.16,0.9-1.53c0.75-0.94,1.43-0.94,2.25-0.94h0.3c-0.07,0.87-0.15,1.89-0.15,2.91
	c0,5.02,2.93,8.14,7.43,8.14c1.13,0,2.1-0.15,3.6-0.58l0.75-4.29c-1.35,0.66-2.48,0.94-3.53,0.94c-2.4,0-3.83-1.67-3.83-4.58
	C303.66,66.85,305.76,63.94,308.92,63.94L308.92,63.94z M343.98,60.24l-0.9,5.38c-0.98-1.45-2.18-2.11-3.75-2.11
	c-2.18,0-4.2,1.16-5.48,3.42l-2.63-1.53l0.23-1.6h-4.43l-2.55,15.27h4.2l1.35-8.21c0,0,1.05-1.16,1.35-1.53
	c0.6-0.73,1.28-0.94,1.8-0.94c-0.5,1.45-0.75,2.98-0.75,4.51c0,3.85,2.1,6.4,5.11,6.4c1.5,0,2.7-0.51,3.83-1.74l-0.23,1.53h3.98
	l3.15-18.83L343.98,60.24L343.98,60.24L343.98,60.24z M338.95,75.43c-1.43,0-2.1-0.94-2.1-2.98c0-2.98,1.28-5.16,3.23-5.16
	c1.43,0,2.18,1.09,2.18,3.05C342.26,73.32,340.9,75.43,338.95,75.43L338.95,75.43z M319.81,72.23c-0.45,0-0.52-0.07-0.82-0.07
	c-2.33,0-3.53,0.87-3.53,2.33c0,1.02,0.6,1.6,1.5,1.6C318.98,76.09,319.73,74.48,319.81,72.23L319.81,72.23z M323.11,79.07h-3.6
	l0.07-1.6c-0.9,1.24-2.1,1.89-4.36,1.89c-2.03,0-3.83-1.67-3.83-4.22c0.07-3.63,2.85-5.89,7.36-5.89c0.45,0,1.2,0,1.8,0.07
	c0.15-0.51,0.15-0.73,0.15-1.02c0-1.02-0.83-1.31-2.78-1.31c-1.2,0-2.55,0.22-3.45,0.44l-0.6,0.22h-0.23l0.6-3.42
	c1.95-0.58,3.3-0.8,4.81-0.8c3.6,0,5.48,1.53,5.48,4.51c0,0.73,0.07,1.31-0.23,2.98l-0.82,5.45l-0.15,0.94l-0.15,0.8l-0.08,0.51
	V79.07z M266.27,67.07c0.83,0,1.95,0.07,3.15,0.22l0.6-3.56c-1.2-0.15-2.78-0.29-3.75-0.29c-4.58,0-6.16,2.4-6.16,5.23
	c0,1.82,0.9,3.2,3.08,4.14c1.73,0.8,2.03,0.95,2.03,1.6c0,0.94-0.9,1.53-2.55,1.53c-1.2,0-2.33-0.22-3.68-0.58l-0.45,3.49h0.08
	l0.75,0.15c0.22,0.07,0.6,0.15,1.05,0.15c1.05,0.15,1.88,0.15,2.4,0.15c4.58,0,6.53-1.67,6.53-5.09c0-2.11-1.05-3.34-3.15-4.22
	c-1.73-0.8-1.95-0.87-1.95-1.6C264.24,67.65,264.99,67.07,266.27,67.07L266.27,67.07z"/>
<path class="st6" d="M314.4,59.66l-0.68,4.07c-1.5-0.73-2.55-1.02-3.68-1.02c-3.15,0-5.33,2.91-5.33,7.05c0,2.84,1.5,4.58,3.9,4.58
	c1.05,0,2.18-0.29,3.53-0.94l-0.75,4.29c-1.5,0.36-2.48,0.51-3.68,0.51c-4.43,0-7.21-3.05-7.21-8.07c0-6.76,3.83-11.41,9.31-11.41
	c0.75,0,1.35,0.07,1.88,0.15l1.73,0.44C313.95,59.51,314.02,59.51,314.4,59.66L314.4,59.66z M301.11,62.49
	c-0.15-0.07-0.3-0.07-0.45-0.07c-1.35,0-2.1,0.65-3.38,2.47l0.38-2.33h-3.83l-2.48,15.34h4.13c1.5-9.38,1.88-10.98,3.9-10.98h0.3
	c0.38-1.82,0.83-3.2,1.58-4.43L301.11,62.49L301.11,62.49L301.11,62.49z M277.16,77.68c-1.13,0.36-2.03,0.51-3,0.51
	c-2.1,0-3.3-1.16-3.3-3.34c0-0.44,0.07-0.87,0.15-1.38l0.22-1.53l0.23-1.16l1.8-10.47h4.13l-0.45,2.25h2.1l-0.6,3.78h-2.1
	l-1.13,6.32c0,0.29-0.07,0.51-0.07,0.65c0,0.8,0.45,1.16,1.43,1.16c0.53,0,0.83-0.07,1.13-0.15L277.16,77.68L277.16,77.68z
	 M261.17,67.43c0,1.89,0.98,3.27,3.15,4.22c1.73,0.8,1.95,1.02,1.95,1.74c0,0.94-0.75,1.38-2.4,1.38c-1.2,0-2.33-0.22-3.68-0.65
	l-0.6,3.56h0.23l0.75,0.15c0.34,0.1,0.7,0.15,1.05,0.15c0.98,0.07,1.8,0.15,2.33,0.15c4.36,0,6.38-1.6,6.38-5.09
	c0-2.11-0.83-3.34-2.93-4.29c-1.73-0.73-1.95-0.94-1.95-1.6c0-0.87,0.68-1.31,2.03-1.31c0.83,0,1.95,0.15,3,0.29l0.6-3.56
	c-1.05-0.15-2.7-0.29-3.68-0.29C262.74,62.27,261.17,64.6,261.17,67.43L261.17,67.43z M346.16,77.9h-3.98l0.22-1.53
	c-1.13,1.16-2.33,1.67-3.83,1.67c-3,0-5.03-2.47-5.03-6.32c0-5.09,3.08-9.38,6.76-9.38c1.65,0,2.85,0.65,3.98,2.11l0.9-5.38h4.13
	L346.16,77.9L346.16,77.9z M340,74.27c1.95,0,3.3-2.11,3.3-5.16c0-1.89-0.75-2.98-2.18-2.98c-1.88,0-3.23,2.11-3.23,5.16
	C337.9,73.25,338.58,74.27,340,74.27z M289.85,77.54c-1.43,0.44-2.78,0.65-4.28,0.65c-4.66,0-7.06-2.4-7.06-6.83
	c0-5.31,3.08-9.16,7.28-9.16c3.38,0,5.56,2.18,5.56,5.6c0,1.09-0.15,2.18-0.45,3.78h-8.26c-0.08,0.22-0.08,0.29-0.08,0.44
	c0,1.74,1.2,2.69,3.68,2.69c1.43,0,2.78-0.29,4.28-0.94L289.85,77.54z M287.52,68.45v-0.8c0-1.24-0.68-1.96-1.95-1.96
	s-2.25,1.02-2.63,2.76H287.52L287.52,68.45z M245.4,77.9h-4.13l2.4-14.47l-5.33,14.47h-2.85l-0.3-14.39l-2.55,14.39h-3.83
	l3.23-18.83h5.93l0.23,11.63l3.98-11.63h6.46L245.4,77.9L245.4,77.9z M255.68,71.07C255.23,71,255.01,71,254.71,71
	c-2.33,0-3.53,0.8-3.53,2.33c0,0.94,0.6,1.6,1.5,1.6C254.41,74.92,255.61,73.32,255.68,71.07L255.68,71.07z M258.69,77.9h-3.45
	l0.08-1.6c-1.05,1.24-2.4,1.82-4.36,1.82c-2.25,0-3.75-1.67-3.75-4.14c0-3.71,2.63-5.89,7.28-5.89c0.45,0,1.05,0,1.65,0.07
	c0.15-0.44,0.15-0.65,0.15-0.94c0-1.02-0.68-1.38-2.63-1.38c-1.2,0-2.55,0.15-3.45,0.44l-0.6,0.15l-0.38,0.07l0.6-3.42
	c2.1-0.58,3.45-0.8,4.96-0.8c3.6,0,5.48,1.53,5.48,4.43c0,0.8-0.08,1.38-0.38,3.05l-0.83,5.45l-0.15,0.94l-0.08,0.8l-0.07,0.51
	L258.69,77.9L258.69,77.9z M321.16,71.07C320.71,71,320.48,71,320.18,71c-2.33,0-3.53,0.8-3.53,2.33c0,0.94,0.6,1.6,1.5,1.6
	C319.81,74.92,321.08,73.32,321.16,71.07L321.16,71.07z M324.16,77.9h-3.45l0.07-1.6c-1.05,1.24-2.48,1.82-4.36,1.82
	c-2.25,0-3.83-1.67-3.83-4.14c0-3.71,2.7-5.89,7.36-5.89c0.45,0,1.05,0,1.65,0.07c0.15-0.44,0.15-0.65,0.15-0.94
	c0-1.02-0.68-1.38-2.63-1.38c-1.2,0-2.55,0.15-3.45,0.44l-0.6,0.15l-0.38,0.07l0.6-3.42c2.1-0.58,3.45-0.8,4.96-0.8
	c3.6,0,5.48,1.53,5.48,4.43c0,0.8-0.07,1.38-0.38,3.05l-0.83,5.45l-0.15,0.94l-0.15,0.8l-0.07,0.51L324.16,77.9L324.16,77.9
	L324.16,77.9z M335.27,62.49c-0.08-0.07-0.23-0.07-0.38-0.07c-1.35,0-2.18,0.65-3.45,2.47l0.38-2.33h-3.75l-2.55,15.34h4.2
	c1.43-9.38,1.88-10.98,3.83-10.98h0.3c0.38-1.82,0.9-3.2,1.58-4.43L335.27,62.49L335.27,62.49L335.27,62.49z"/>
</svg>
