<?xml version="1.0" encoding="UTF-8"?>
<svg width="50px" height="40px" viewBox="0 0 50 40" version="1.1" xmlns="http://www.w3.org/2000/svg" xmlns:xlink="http://www.w3.org/1999/xlink">
    <!-- Generator: sketchtool 52.3 (67297) - http://www.bohemiancoding.com/sketch -->
    <title>7A0AF711-1B06-46DF-B707-BD614D5CAB03</title>
    <desc>Created with sketchtool.</desc>
    <g id="Page-1" stroke="none" stroke-width="1" fill="none" fill-rule="evenodd">
        <g id="upload" transform="translate(-473.000000, -373.000000)" fill="#6376EC">
            <g id="Categorize-your-resource" transform="translate(139.000000, 357.000000)">
                <g id="illust" transform="translate(334.000000, 16.000000)">
                    <path d="M27.5880041,39.5821462 L27.5880041,25.9069326 L33.3413405,25.9069326 C33.3785208,25.6607787 33.5720447,25.5741699 33.9806001,25.2231719 C33.89889,25.2277294 33.9806001,25.0226033 33.9806001,24.5394112 C33.9806001,24.5302931 33.9031905,24.3206086 33.9806001,23.8556505 L24.3917061,14.2830009 C23.8312429,14.2830009 23.6334184,14.3650514 23.7524465,14.2830009 L14.1635524,23.8556505 C14.2495631,24.3479593 14.1635524,24.5667605 14.1635524,24.5394112 C14.1635524,25.040837 14.240962,25.2505215 14.1635524,25.2231719 C14.5506049,25.5787283 14.7484294,25.6607787 14.802812,25.9069326 L20.5561484,25.9069326 L20.5561484,39.5821462 L11.606514,39.5821462 C8.42329613,39.5821462 5.71862246,38.3688231 3.29613917,36.1633428 C1.22358394,33.5154577 0.0998411618,30.5951781 0.0998411618,27.2744539 C0.0998411618,24.782212 0.698031232,22.5677819 2.01761997,20.4368471 C3.0908274,18.5079325 4.69739502,16.9855119 6.49243719,15.6505223 C6.67999756,15.4169337 6.66290642,15.0201816 6.49243719,14.9667616 C6.66290642,10.868063 7.94474228,7.52796428 10.3279948,4.71035138 C13.0721626,1.99180607 16.1656599,0.607787274 19.9168888,0.607787274 C22.4552955,0.607787274 24.8950564,1.41051817 26.9487445,3.34283001 C29.3217294,4.62148994 30.9325698,6.75287888 32.0628213,9.49667616 C33.1544519,8.26609546 34.5730169,7.69403436 35.8983789,7.44539411 C38.0083886,7.69403436 39.5551372,8.38604376 41.0124557,9.49667616 C42.1188474,11.1541229 42.7597653,12.8241722 42.9302345,14.9667616 C42.7597653,16.1827749 42.4093968,17.4560722 41.6517153,18.3855651 C43.9305315,19.1722812 45.7550113,20.4225115 47.4050518,22.4881292 C48.6092753,24.2793684 49.3228306,26.4799583 49.3228306,28.6419753 C49.3228306,31.8869395 48.3614537,34.3920135 46.1265325,36.1633428 C44.5158884,38.5441322 42.1957655,39.5821462 39.7339365,39.5821462 L27.5880041,39.5821462 Z" id="Combined-Shape"></path>
                </g>
            </g>
        </g>
    </g>
</svg>