<?xml version="1.0" encoding="utf-8"?>
<!-- Generator: Adobe Illustrator 23.1.0, SVG Export Plug-In . SVG Version: 6.00 Build 0)  -->
<svg version="1.1" id="Layer_1" xmlns="http://www.w3.org/2000/svg" xmlns:xlink="http://www.w3.org/1999/xlink" x="0px" y="0px"
	 viewBox="0 0 520 130" style="enable-background:new 0 0 520 130;" xml:space="preserve">
<style type="text/css">
	.st0{fill:#139AD6;}
	.st1{fill:#263B80;}
	.st2{fill:#232C65;}
</style>
<path class="st0" d="M398.14,35.11h-27.2c-1.6,0-3.2,1.6-4,3.2l-11.2,70.4c0,1.6,0.8,2.4,2.4,2.4h14.4c1.6,0,2.4-0.8,2.4-2.4l3.2-20
	c0-1.6,1.6-3.2,4-3.2h8.8c18.4,0,28.8-8.8,31.2-26.4c1.6-7.2,0-13.6-3.2-17.6C414.14,37.51,406.94,35.11,398.14,35.11 M401.34,61.51
	c-1.6,9.6-8.8,9.6-16,9.6h-4.8l3.2-18.4c0-0.8,0.8-1.6,2.4-1.6h1.6c4.8,0,9.6,0,12,3.2C401.34,55.11,401.34,57.51,401.34,61.51"/>
<g>
	<path class="st1" d="M202.14,35.11h-27.2c-1.6,0-3.2,1.6-4,3.2l-11.2,70.4c0,1.6,0.8,2.4,2.4,2.4h12.8c1.6,0,3.2-1.6,4-3.2
		l3.2-19.2c0-1.6,1.6-3.2,4-3.2h8.8c18.4,0,28.8-8.8,31.2-26.4c1.6-7.2,0-13.6-3.2-17.6C218.14,37.51,211.74,35.11,202.14,35.11
		 M205.34,61.51c-1.6,9.6-8.8,9.6-16,9.6h-4l3.2-18.4c0-0.8,0.8-1.6,2.4-1.6h1.6c4.8,0,9.6,0,12,3.2
		C205.34,55.11,206.14,57.51,205.34,61.51"/>
	<path class="st1" d="M284.54,60.71h-12.8c-0.8,0-2.4,0.8-2.4,1.6l-0.8,4l-0.8-1.6c-3.2-4-8.8-5.6-15.2-5.6
		c-14.4,0-27.2,11.2-29.6,26.4c-1.6,8,0.8,15.2,4.8,20s9.6,6.4,16.8,6.4c12,0,18.4-7.2,18.4-7.2l-0.8,4c0,1.6,0.8,2.4,2.4,2.4h12
		c1.6,0,3.2-1.6,4-3.2l7.2-44.8C286.94,62.31,285.34,60.71,284.54,60.71 M266.14,86.31c-1.6,7.2-7.2,12.8-15.2,12.8
		c-4,0-7.2-1.6-8.8-3.2c-1.6-2.4-2.4-5.6-2.4-9.6c0.8-7.2,7.2-12.8,14.4-12.8c4,0,6.4,1.6,8.8,3.2
		C265.34,79.11,266.14,83.11,266.14,86.31"/>
</g>
<path class="st0" d="M479.74,60.71h-12.8c-0.8,0-2.4,0.8-2.4,1.6l-0.8,4l-0.8-1.6c-3.2-4-8.8-5.6-15.2-5.6
	c-14.4,0-27.2,11.2-29.6,26.4c-1.6,8,0.8,15.2,4.8,20s9.6,6.4,16.8,6.4c12,0,18.4-7.2,18.4-7.2l-0.8,4c0,1.6,0.8,2.4,2.4,2.4h12
	c1.6,0,3.2-1.6,4-3.2l7.2-44.8C482.14,62.31,481.34,60.71,479.74,60.71 M461.34,86.31c-1.6,7.2-7.2,12.8-15.2,12.8
	c-4,0-7.2-1.6-8.8-3.2c-1.6-2.4-2.4-5.6-2.4-9.6c0.8-7.2,7.2-12.8,14.4-12.8c4,0,6.4,1.6,8.8,3.2
	C461.34,79.11,462.14,83.11,461.34,86.31"/>
<path class="st1" d="M354.14,60.71h-13.6c-1.6,0-2.4,0.8-3.2,1.6l-17.6,27.2l-8-25.6c-0.8-1.6-1.6-2.4-4-2.4h-12.8
	c-1.6,0-2.4,1.6-2.4,3.2l14.4,42.4l-13.6,19.2c-0.8,1.6,0,4,1.6,4h12.8c1.6,0,2.4-0.8,3.2-1.6l44-63.2
	C357.34,63.11,355.74,60.71,354.14,60.71"/>
<path class="st0" d="M494.94,37.51l-11.2,72c0,1.6,0.8,2.4,2.4,2.4h11.2c1.6,0,3.2-1.6,4-3.2l11.2-70.4c0-1.6-0.8-2.4-2.4-2.4h-12.8
	C496.54,35.11,495.74,35.91,494.94,37.51"/>
<path class="st1" d="M100.54,11.11c-5.6-6.4-16-9.6-30.4-9.6h-40c-2.4,0-4.8,2.4-5.6,4.8l-16,104.8c0,2.4,1.6,4,3.2,4h24.8l6.4-39.2
	v1.6c0.8-2.4,3.2-4.8,5.6-4.8h12c23.2,0,40.8-9.6,46.4-36c0-0.8,0-1.6,0-2.4c-0.8,0-0.8,0,0,0
	C107.74,23.91,106.14,17.51,100.54,11.11"/>
<path class="st0" d="M106.14,34.31L106.14,34.31c0,0.8,0,1.6,0,2.4c-5.6,27.2-23.2,36-46.4,36h-12c-2.4,0-4.8,2.4-5.6,4.8l-8,48.8
	c0,1.6,0.8,3.2,3.2,3.2h20.8c2.4,0,4.8-1.6,4.8-4v-0.8l4-24.8v-1.6c0-2.4,2.4-4,4.8-4h3.2c20,0,36-8,40-32c1.6-9.6,0.8-18.4-4-24
	C110.14,36.71,108.54,35.11,106.14,34.31"/>
<path class="st2" d="M100.54,31.91c-0.8,0-1.6-0.8-2.4-0.8s-1.6,0-2.4-0.8c-3.2-0.8-6.4-0.8-10.4-0.8h-31.2c-0.8,0-1.6,0-2.4,0.8
	c-1.6,0.8-2.4,2.4-2.4,4l-6.4,41.6v1.6c0.8-2.4,3.2-4.8,5.6-4.8h12c23.2,0,40.8-9.6,46.4-36c0-0.8,0-1.6,0.8-2.4
	c-1.6-0.8-2.4-1.6-4-1.6C101.34,31.91,101.34,31.91,100.54,31.91"/>
</svg>
